<?xml version="1.0" encoding="UTF-8"?><svg id="b" xmlns="http://www.w3.org/2000/svg" width="533.15" height="321.8" viewBox="0 0 533.15 321.8"><g id="c"><path d="M256.39,84.89c-19.73-18.57-58.13-49.87-115.55-68.96C82.95-3.31,33.08-1.05,6.11,2.1c15.33,12.4,40.26,36,58.03,73.35,11.62,24.43,16.44,46.87,18.54,63.15,9.08,4.05,18.15,8.1,27.23,12.15-10.26,2.55-20.51,5.09-30.76,7.64,1.18,15.32,1.58,47.57-14.93,83.11-19.53,42.07-51.23,63.94-64.22,71.92,20.2,5.49,83.26,19.83,153.87-9.41,57.1-23.64,89.31-63.43,102.2-81.42,2.65-20.86,4.47-44.64,4.44-70.82-.03-24.59-1.69-47.02-4.12-66.88ZM193.54,203.35c-3.11,2.24-7.29,4.83-12.54,7.04-5.17,2.18-9.87,3.37-13.61,4.04,4.69-12.78,10.11-32.02,10.94-55.89.86-24.84-3.58-45.1-7.58-58.38,3.32.09,8.11.6,13.47,2.59,3.98,1.47,7.12,3.32,9.42,4.92,2.65,13.2,4.83,29.78,4.72,48.94-.1,18.19-2.24,34.01-4.82,46.74Z"/><path d="M533.15,313.42c-20.2,5.49-83.26,19.83-153.87-9.41-57.1-23.64-89.31-63.43-102.2-81.42-2.28-17.95-3.95-38.06-4.35-60.01,4.82,4.97,15.56,14.66,32.38,19.59,20.59,6.03,37.85,1.29,44.29-.84-10.37-8.49-20.75-16.99-31.13-25.49,10.2-8.15,20.39-16.3,30.59-24.45-6.25-2-23.4-6.59-43.75-.32-17.25,5.31-27.93,15.7-32.47,20.7.03-24.59,1.69-47.02,4.12-66.88,19.73-18.57,58.13-49.87,115.55-68.96C450.2-3.31,500.07-1.05,527.04,2.1c-15.33,12.4-40.26,36-58.03,73.35-11.63,24.43-16.44,46.87-18.54,63.15-9.08,4.05-18.15,8.1-27.23,12.15,10.25,2.55,20.51,5.09,30.76,7.64-1.18,15.32-1.58,47.57,14.93,83.11,19.53,42.07,51.23,63.94,64.22,71.92Z"/></g></svg>