<?xml version="1.0" encoding="UTF-8"?><svg id="b" xmlns="http://www.w3.org/2000/svg" width="653.17" height="307.14" viewBox="0 0 653.17 307.14"><g id="c"><path d="M269.61,170.75c2.88-21.26-2.2-42.44-15.06-62.94-9.88-15.72-20.9-25.41-23.01-27.19l-11.79-9.95,15.27,2.25c11.83,1.74,23.31,6.14,33.24,12.71h.23c-4.13-24.82-10.75-45.03-16.37-59.38-.87,2.35-2.48,5.83-5.49,9.31-2.24,2.57-4.54,4.33-6.35,5.5-1.4-3.7-4.05-12.21-2.11-22.85,1.61-8.88,5.68-15.09,8.03-18.19-13.72-.24-34.95,1.02-59.22,9.31-24.21,8.26-41.74,20.2-52.46,28.76-4.44-5.4-14.41-16.03-30.88-22.42-20.29-7.87-38.14-4.56-44.84-2.96,7.45,2.79,18.94,8.18,30.04,18.61,16.39,15.42,22.61,33.08,24.96,41.46-1.96-2.34-5.25-5.68-10.15-8.46-5.78-3.28-11.16-4.3-14.39-4.65,5.61,7.03,18.92,25.66,21.58,53.3,2.75,28.66-7.58,50.11-11.84,57.96-2.51-2.19-5.9-5.63-8.89-10.58-2.84-4.72-4.3-9.12-5.07-12.27-.96,7.8-1.76,23.38,5.49,40.61,4.29,10.17,9.97,17.59,14.39,22.42-12.42,1.51-31.08,5.37-51.19,16.08-29.25,15.57-45.97,37.33-53.72,49.07,9.93-8.28,27.36-20.61,52.03-27.92,18.1-5.36,34.02-6.22,45.27-5.92-3-1.49-6.83-3.07-11.42-4.23-6.18-1.56-11.61-1.81-15.65-1.69,14.08-3.27,50.48-9.73,92.22,5.92,47.52,17.83,71.74,53,79.1,64.72.09-6.76-.62-18.29-5.92-31.31-5.34-13.1-12.96-21.87-17.77-26.65,2.68.3,7.37,1.19,12.27,4.23,6.61,4.11,9.78,9.75,11,12.27,5.09-10.17,11.4-24.23,17.03-41.64-2.08.78-4.18,1.49-6.3,2.15l-14.65,4.53,10.02-11.6c8.57-9.92,19.41-26.36,22.38-48.37ZM185.37,187.3c-2.35.87-4.92,1.93-7.6,3.26-2.32,1.14-4.42,2.32-6.31,3.48,1.04-13.18,1.46-28.06.65-44.34-1.03-20.82-3.84-39.31-7.18-54.99,1.43,1.27,3.02,2.88,4.6,4.85,1.78,2.21,3.11,4.34,4.11,6.18-.11-6.14.5-16.08,4.82-27.29,3.6-9.33,8.47-16.14,12.11-20.47-4.41,18.95-8.25,42.63-8.91,70-.55,22.56,1.19,42.58,3.69,59.34Z"/><path d="M599.45,227.19c-20.11-10.71-38.77-14.56-51.19-16.08,4.41-4.83,10.1-12.25,14.39-22.42,7.25-17.23,6.46-32.81,5.49-40.61-.78,3.15-2.23,7.55-5.07,12.27-2.98,4.94-6.37,8.39-8.89,10.58-4.26-7.84-14.59-29.3-11.84-57.96,2.66-27.64,15.97-46.26,21.58-53.3-3.23.35-8.61,1.37-14.39,4.65-4.9,2.78-8.19,6.12-10.15,8.46,2.35-8.38,8.57-26.04,24.96-41.46,11.1-10.43,22.58-15.83,30.04-18.61-6.7-1.6-24.55-4.91-44.84,2.96-16.47,6.39-26.44,17.02-30.88,22.42-10.71-8.56-28.25-20.5-52.46-28.76C441.93,1.05,420.7-.21,406.97.03c2.35,3.1,6.42,9.31,8.03,18.19,1.94,10.63-.71,19.15-2.11,22.85-1.81-1.17-4.11-2.93-6.35-5.5-3.01-3.47-4.63-6.95-5.49-9.31-5.55,14.15-12.07,34.01-16.2,58.37,4.13-1.44,8.36-2.64,12.67-3.62l10.58-2.39-5.93,9.09c-8.05,12.33-13.48,26.55-15.72,41.1-1.15,7.47-1.46,15.11-.96,22.7l7.58-15.29.65,17.28c.41,10.81,2.54,21.4,6.33,31.49,3.34,8.9,7.93,17.28,13.65,24.9l5.19,6.93-8.66.1c-.32,0-.65,0-.99,0-5.66,0-11.35-.56-16.92-1.66,6.22,21.51,13.8,38.62,19.73,50.45,1.22-2.52,4.38-8.16,11-12.27,4.9-3.04,9.59-3.93,12.27-4.23-4.81,4.77-12.43,13.55-17.77,26.65-5.31,13.02-6.01,24.55-5.92,31.31,7.37-11.72,31.58-46.89,79.1-64.72,41.74-15.66,78.14-9.19,92.22-5.92-4.04-.13-9.47.13-15.65,1.69-4.6,1.16-8.43,2.74-11.42,4.23,11.25-.3,27.17.56,45.27,5.92,24.67,7.31,42.09,19.64,52.03,27.92-7.76-11.74-24.48-33.5-53.72-49.07ZM481.71,194.04c-1.88-1.16-3.99-2.34-6.31-3.48-2.69-1.33-5.25-2.39-7.6-3.26,2.51-16.75,4.24-36.78,3.69-59.34-.66-27.37-4.5-51.05-8.91-70,3.65,4.33,8.52,11.15,12.11,20.47,4.33,11.22,4.93,21.15,4.82,27.29,1-1.84,2.33-3.97,4.11-6.18,1.58-1.97,3.17-3.57,4.6-4.85-3.34,15.69-6.15,34.18-7.18,54.99-.8,16.28-.39,31.16.65,44.34Z"/><path d="M373.87,204.64c-4.51-2.11-11.37-5.81-18.59-11.91-4.61-3.9-8.11-7.72-10.66-10.82.84,3.18,2.08,6.81,3.94,10.64,4.28,8.79,9.95,14.8,14.15,18.51-5.9-3.2-15.88-9.6-24.64-21.07-8.18-10.71-11.76-21.21-13.4-27.57-3.33,9.58-7.87,20.51-14.1,32.12-7.74,14.39-16.1,26.13-23.62,35.34,3.2-5.98,6.75-14.7,7.45-25.55.18-2.72.15-5.28,0-7.66-4.82,4.48-11.23,9.65-19.37,14.48-5.36,3.18-10.5,5.63-15.2,7.54-3.34,1.36-6.46,2.44-9.28,3.32,3.81-4.41,9.22-11.38,13.95-20.67,4.2-8.23,7.88-18.28,9.46-29.99,1.58-11.69.74-22.61-1.56-32.59-8.21-35.57-35.12-59.03-38.02-61.49,6.81,1,19.15,3.74,31.93,12.35,1.09.73,2.14,1.48,3.15,2.24,9.44,7.07,15.3,14.86,18.56,19.9-.07-2.55-.62-9.71-5.96-15.96-2.49-2.92-5.23-4.7-7.23-5.75,7.44.01,20.21.99,34.48,7.23,15.55,6.81,25.43,16.61,30.44,22.35,5.26-5.82,12.87-13.02,23.2-19.58,7.44-4.72,14.65-8.07,21.12-10.47,5.44-2.02,10.36-3.37,14.43-4.29-5.12,7.84-13.27,22.54-16.38,42.84-.8,5.21-1.17,10.16-1.24,14.8-.09,5.93.31,11.35.95,16.12v.03c.79,5.88,1.94,10.79,2.96,14.46-.03-2.69.19-6.19,1.09-10.15.92-4.02,2.25-7.3,3.47-9.74.3,8.05,1.67,19.73,6.61,32.86,4.26,11.35,9.77,20.03,14.24,25.99-.22,0-.55,0-.94,0-17.35.01-30.6-5.63-35.37-7.86Z"/></g></svg>