<?xml version="1.0" encoding="UTF-8"?><svg id="b" xmlns="http://www.w3.org/2000/svg" width="798" height="465.63" viewBox="0 0 798 465.63"><g id="c"><path d="M775.56,249.65l-7.58,4.62c-22.14,13.49-42.2,29.95-59.64,48.9l-4.7,5.11c-4.19,4.79-8.51,10.07-12.85,15.85-4.11,5.48-7.78,10.81-11.07,15.9l-2.99,4.85c-18.35,29.77-30.79,62.47-36.97,97.19l-1.25,7.03-7.01-1.4c-34.06-6.79-65.91-21.86-92.1-43.56-25.14-20.79-44.5-46.82-57.71-77.51-1.88-4.35-3.62-8.79-5.25-13.32-3.84,2.65-7.94,5.08-12.26,7.27-18.42,9.38-40.85,14.53-64.45,14.53s-47.07-5.37-65.67-15.15c-4.3-2.26-8.38-4.75-12.19-7.47-1.62,4.56-3.36,9.02-5.22,13.39-13.22,31.02-32.69,57.29-58.02,78.26-26.2,21.7-58.04,36.76-92.1,43.56l-7.01,1.4-1.25-7.03c-7.69-43.07-25.52-84.06-51.56-118.53-20.97-27.74-46.76-51.05-76.67-69.27l-7.59-4.62,6.27-6.3c13.59-13.66,24.95-29.24,33.76-46.31,11.85-23,18.74-47.9,20.46-73.98l2.35-35.67,11.27,33.92c2.99,8.98,9.16,21.54,21.62,30.4,9.24,6.57,20.34,9.89,32.98,9.89,14.19,0,26.55-4.17,31.87-5.97,25.93-8.77,42.9-23.53,50.42-43.86,8.58-23.12,1.39-44.7-2.1-52.91l-9.11-21.43,19.41,12.85c20.85,13.8,38.72,30.69,53.11,50.22,18.4,24.95,30.66,53.55,36.57,85.24.9,4.77,1.65,9.62,2.25,14.54,4.24-2.25,8.69-4.27,13.32-6.05,15.95-6.13,34.03-9.39,52.83-9.39s35.82,3.08,51.46,8.88c4.63,1.72,9.09,3.68,13.34,5.86.61-4.89,1.37-9.72,2.27-14.47,5.97-31.44,18.19-59.85,36.47-84.61,14.41-19.55,32.28-36.44,53.11-50.22l19.45-12.87-9.15,21.46c-3.5,8.19-10.7,29.74-2.11,52.91,7.53,20.32,24.49,35.08,50.42,43.85l.05.02c5.28,1.78,17.64,5.95,31.82,5.95,12.64,0,23.74-3.32,32.98-9.89,12.44-8.84,18.63-21.41,21.63-30.41l11.3-33.84,2.33,35.6c1.7,26.05,8.58,50.94,20.45,73.98,8.78,17.04,20.14,32.62,33.75,46.31l6.26,6.3Z" fill="#fff"/><path d="M779.23,233.48c-12.6-12.67-23.11-27.09-31.23-42.85-10.83-21.02-17.38-44.7-18.93-68.48l-6.99-106.82-33.89,101.54c-2.34,7.02-7.1,16.78-16.46,23.43-6.92,4.91-15.05,7.3-24.87,7.3-11.88,0-22.32-3.52-27.33-5.22l-.06-.02c-8.09-2.73-32.74-11.07-41.77-35.44-6.84-18.46-.98-35.91,1.85-42.56L607.02,0l-58.36,38.6c-22.21,14.69-41.27,32.72-56.66,53.59-18.99,25.75-31.87,55.12-38.4,87.53-16.57-5.8-34.96-8.88-53.87-8.88s-38.31,3.24-55.21,9.35c-6.49-32.59-19.4-62.11-38.49-88-15.37-20.85-34.43-38.88-56.65-53.58L191.14.06l27.32,64.28c2.84,6.66,8.69,24.16,1.86,42.56-9.02,24.39-33.68,32.73-41.78,35.47-4.66,1.57-15.49,5.23-27.38,5.23-9.81,0-17.95-2.39-24.87-7.3-9.37-6.67-14.12-16.41-16.44-23.4L76.02,15.14l-7.05,107c-1.6,24.16-7.97,47.2-18.94,68.49-8.14,15.79-18.65,30.2-31.23,42.85L0,252.36l22.75,13.86c28.4,17.31,52.89,39.43,72.79,65.76,24.72,32.72,41.64,71.64,48.95,112.55l3.76,21.1,21.02-4.2c36.32-7.25,70.31-23.33,98.29-46.51,18.28-15.13,33.92-33.16,46.48-53.58,5.52-8.99,10.47-18.47,14.78-28.35,20.39,10.41,45.01,16.12,70.91,16.12s49.53-5.5,69.72-15.53c4.37,9.92,9.37,19.46,14.97,28.48,12.49,20.13,27.98,37.91,46.05,52.87,27.97,23.17,61.96,39.25,98.29,46.5l21.03,4.2,3.76-21.11c5.86-32.97,17.67-64.03,35.1-92.29,3.61-5.92,7.78-12.18,12.58-18.64,5.9-7.94,11.8-14.9,17.42-20.94,16.55-17.99,35.6-33.61,56.62-46.43l22.73-13.86-18.77-18.88ZM767.98,254.27c-22.14,13.49-42.2,29.95-59.64,48.9l-4.7,5.11c-4.19,4.79-8.51,10.07-12.85,15.85-4.11,5.48-7.78,10.81-11.07,15.9l-2.99,4.85c-18.35,29.77-30.79,62.47-36.97,97.19l-1.25,7.03-7.01-1.4c-34.06-6.79-65.91-21.86-92.1-43.56-25.14-20.79-44.5-46.82-57.71-77.51-1.88-4.35-3.62-8.79-5.25-13.32-3.84,2.65-7.94,5.08-12.26,7.27-18.42,9.38-40.85,14.53-64.45,14.53s-47.07-5.37-65.67-15.15c-4.3-2.26-8.38-4.75-12.19-7.47-1.62,4.56-3.36,9.02-5.22,13.39-13.22,31.02-32.69,57.29-58.02,78.26-26.2,21.7-58.04,36.76-92.1,43.56l-7.01,1.4-1.25-7.03c-7.69-43.07-25.52-84.06-51.56-118.53-20.97-27.74-46.76-51.05-76.67-69.27l-7.59-4.62,6.27-6.3c13.59-13.66,24.95-29.24,33.76-46.31,11.85-23,18.74-47.9,20.46-73.98l2.35-35.67,11.27,33.92c2.99,8.98,9.16,21.54,21.62,30.4,9.24,6.57,20.34,9.89,32.98,9.89,14.19,0,26.55-4.17,31.87-5.97,25.93-8.77,42.9-23.53,50.42-43.86,8.58-23.12,1.39-44.7-2.1-52.91l-9.11-21.43,19.41,12.85c20.85,13.8,38.72,30.69,53.11,50.22,18.4,24.95,30.66,53.55,36.57,85.24.9,4.77,1.65,9.62,2.25,14.54,4.24-2.25,8.69-4.27,13.32-6.05,15.95-6.13,34.03-9.39,52.83-9.39s35.82,3.08,51.46,8.88c4.63,1.72,9.09,3.68,13.34,5.86.61-4.89,1.37-9.72,2.27-14.47,5.97-31.44,18.19-59.85,36.47-84.61,14.41-19.55,32.28-36.44,53.11-50.22l19.45-12.87-9.15,21.46c-3.5,8.19-10.7,29.74-2.11,52.91,7.53,20.32,24.49,35.08,50.42,43.85l.05.02c5.28,1.78,17.64,5.95,31.82,5.95,12.64,0,23.74-3.32,32.98-9.89,12.44-8.84,18.63-21.41,21.63-30.41l11.3-33.84,2.33,35.6c1.7,26.05,8.58,50.94,20.45,73.98,8.78,17.04,20.14,32.62,33.75,46.31l6.26,6.3-7.58,4.62Z"/><path d="M323.8,206.14c1.04-.7,2.1-1.39,3.18-2.06-3.43-31.24-13.68-66.65-37.85-99.43-17.67-23.96-37.5-39.37-51.34-48.53,2.67,6.28,12.33,30.85,2.22,58.09-12.48,33.73-45.31,44.86-54.74,48.05-5.56,1.88-18.73,6.34-34.11,6.34-11.85,0-25.02-2.65-37.03-11.18-15.36-10.92-21.72-26.41-24.21-33.9-1.15,17.44-5.34,45.91-21.22,76.73-11.19,21.69-24.53,37.5-35.02,48.04,20.58,12.54,51.2,34.76,78.61,71.03,36.09,47.77,48.25,95.64,52.87,121.52,18.83-3.76,54.61-13.6,89.01-42.09,37.27-30.86,54.05-67.99,61.87-90.76-.21-.17-.42-.34-.63-.53-.57-.48-1.13-.97-1.69-1.47-14.75-13.21-22.54-29.12-22.54-46.02,0-20.51,11.59-39.63,32.62-53.83ZM190.48,254.25c-16.2,32.27-36.18,54.62-50.27,68.15-2.48-6.46-6.12-14.34-11.56-22.71-5.8-8.94-11.95-15.82-17.13-20.86,10.41-10.39,23.48-25.6,35.02-46.19,10.23-18.24,16.16-35.2,19.74-48.41,7.96-1.32,16.29-2.91,24.95-4.84,8.35-1.86,16.3-3.86,23.83-5.96-2.44,19.36-8.44,48.65-24.58,80.82Z"/><path d="M729.33,200.25c-15.88-30.82-20.08-59.29-21.22-76.73-2.5,7.49-8.85,22.98-24.22,33.9-12.01,8.53-25.18,11.18-37.03,11.18-15.38,0-28.54-4.46-34.11-6.34-9.43-3.19-42.25-14.32-54.74-48.05-10.1-27.24-.45-51.81,2.23-58.09-13.85,9.16-33.67,24.57-51.34,48.53-23.97,32.5-34.24,67.57-37.76,98.61.39.23.76.47,1.14.7.64.4,1.28.8,1.91,1.21,10.51,6.82,18.82,14.88,24.68,23.97,6.26,9.7,9.43,20.07,9.43,30.83,0,17.4-8.23,33.7-23.79,47.12-.58.5-1.17,1-1.77,1.48-.15.13-.29.25-.44.36,7.95,22.84,24.78,59.38,61.56,89.82,34.39,28.49,70.17,38.33,89.01,42.09,3.9-21.91,13.22-59.59,37.9-99.63-17.88-16.89-43.55-45.37-63.22-86.96-2.58-5.44-4.91-10.8-7.01-16.05,6.46-.7,13.3-1.68,20.42-3.02,10.27-1.94,19.7-4.34,28.21-6.95.75,1.46,1.51,2.94,2.32,4.41,16.46,30.54,36.46,52.01,51.7,65.79,22.29-24.23,44.86-40.21,61.15-50.14-10.48-10.54-23.83-26.35-35.01-48.04ZM615.99,217.06c-1.62.07-3.22.1-4.78.1-6.85,0-13.11-.64-18.66-1.59-4.88-15.86-7.78-30.19-9.59-42.14,7.53,2.1,15.48,4.1,23.83,5.96,8.67,1.93,16.99,3.52,24.96,4.84,2.49,8.64,5.77,18.28,10.16,28.54-7.3,2.12-16.02,3.85-25.92,4.29Z"/><path d="M399.73,191.84c-56.09,0-101.55,30.51-101.55,68.13s45.46,68.14,101.55,68.14,101.57-30.49,101.57-68.14-45.48-68.13-101.57-68.13ZM406.16,266.39l-6.42,11.74-6.42-11.74-11.74-6.42,11.74-6.42,6.42-11.74,6.42,11.74,11.74,6.42-11.74,6.42Z"/></g></svg>